<svg id="Layer_1" data-name="Layer 1" xmlns="http://www.w3.org/2000/svg" viewBox="0 0 430.54 99.08"><defs><style>.cls-1{fill:#fff;}</style></defs><title>taitotalo-tunnus-matala-rgb-valkoinen</title><path class="cls-1" d="M53.6,0H91.71a.38.38,0,0,1,.38.38v6a.38.38,0,0,1-.38.38H53.6a.38.38,0,0,1-.38-.38v-6A.38.38,0,0,1,53.6,0ZM72.66,14.68c13,0,20.6,8.44,20.6,20s-7.55,20-20.6,20-20.61-8.45-20.61-20S59.6,14.68,72.66,14.68Zm0,34c8.1,0,13.38-5.83,13.38-14s-5.28-14-13.38-14-13.39,5.83-13.39,14S64.6,48.67,72.66,48.67Zm-42,36H63.08V77.41a.38.38,0,0,1,.38-.38h5.35a.38.38,0,0,1,.38.38V98.7a.38.38,0,0,1-.38.38H63.46a.38.38,0,0,1-.38-.38V91.41H30.7a.38.38,0,0,1-.38-.38V85A.38.38,0,0,1,30.7,84.64Zm6.39-53V64.05h7.23a.38.38,0,0,1,.38.38v5.35a.38.38,0,0,1-.38.38H23a.38.38,0,0,1-.38-.38V64.43a.38.38,0,0,1,.38-.38h7.29V31.66a.38.38,0,0,1,.38-.38h6A.38.38,0,0,1,37.09,31.66ZM5.61,24.79V13.52L.26,11.77A.39.39,0,0,1,0,11.41V5.56A.38.38,0,0,1,.51,5.2L38.44,18.88a.38.38,0,0,1,0,.71L.51,33.16A.38.38,0,0,1,0,32.8V26.9a.38.38,0,0,1,.26-.36ZM11.16,23l12.22-3.77L11.16,15.35ZM130.44,53.79V21.31h-7.25a.38.38,0,0,1-.38-.38V15.57a.39.39,0,0,1,.38-.39h21.35a.4.4,0,0,1,.39.39v5.36a.39.39,0,0,1-.39.38h-7.3V53.79a.38.38,0,0,1-.38.38h-6a.39.39,0,0,1-.39-.38m31-10.81,3.9-12.26L169.16,43ZM172.7,53.91a.37.37,0,0,0,.36.26H179a.38.38,0,0,0,.36-.51l-13.61-38a.38.38,0,0,0-.72,0l-13.71,38a.38.38,0,0,0,.36.51h5.86a.37.37,0,0,0,.36-.26l1.76-5.36h11.3Zm19.53-.12a.38.38,0,0,0,.38.38h6a.38.38,0,0,0,.38-.38V15.57a.39.39,0,0,0-.38-.39h-6a.39.39,0,0,0-.38.39V53.79M265,48.71c-8.08,0-13.42-5.84-13.42-14s5.34-14,13.42-14,13.42,5.85,13.42,14-5.29,14-13.42,14m0-34.08c-13.09,0-20.66,8.46-20.66,20s7.57,20,20.66,20,20.66-8.47,20.66-20-7.57-20-20.66-20m-44.4,39.16a.38.38,0,0,0,.38.38h6a.38.38,0,0,0,.38-.38V21.31h7.31a.38.38,0,0,0,.38-.38V15.57a.39.39,0,0,0-.38-.39H213.39a.39.39,0,0,0-.38.39v5.36a.38.38,0,0,0,.38.38h7.25V53.79m143.39,0a.38.38,0,0,0,.38.38h15.22a.38.38,0,0,0,.38-.38V49a.38.38,0,0,0-.38-.38h-8.81v-33a.39.39,0,0,0-.38-.39h-6a.39.39,0,0,0-.38.39V53.79m45.84-5.08c-8.07,0-13.42-5.84-13.42-14s5.35-14,13.42-14,13.43,5.85,13.43,14-5.29,14-13.43,14m0-34.08c-13.08,0-20.66,8.46-20.66,20s7.58,20,20.66,20,20.67-8.47,20.67-20-7.58-20-20.67-20M302.44,53.79a.38.38,0,0,0,.38.38h6a.38.38,0,0,0,.38-.38V21.31h7.31a.38.38,0,0,0,.38-.38V15.57a.39.39,0,0,0-.38-.39H295.19a.39.39,0,0,0-.38.39v5.36a.38.38,0,0,0,.38.38h7.25V53.79m31-10.81,3.9-12.26L341.15,43Zm11.22,10.93a.37.37,0,0,0,.36.26H351a.38.38,0,0,0,.36-.51l-13.61-38a.37.37,0,0,0-.71,0l-13.72,38a.38.38,0,0,0,.36.51h5.86a.38.38,0,0,0,.37-.26l1.75-5.36h11.3Z"/></svg>